<?xml version="1.0" encoding="iso-8859-1"?>
<!-- Generator: Adobe Illustrator 19.0.0, SVG Export Plug-In . SVG Version: 6.00 Build 0)  -->
<svg version="1.1" id="Layer_1" xmlns="http://www.w3.org/2000/svg" xmlns:xlink="http://www.w3.org/1999/xlink" x="0px" y="0px"
	 viewBox="0 0 512.034 512.034" style="enable-background:new 0 0 512.034 512.034;" xml:space="preserve">
<g transform="translate(-1)">
	<g>
		<g>
			<path d="M103.434,324.284c-9.429,0-17.067,7.637-17.067,17.067c0,9.421,7.637,17.067,17.067,17.067s17.067-7.646,17.067-17.067
				C120.501,331.921,112.864,324.284,103.434,324.284z"/>
			<path d="M410.634,324.284c-9.429,0-17.067,7.637-17.067,17.067c0,9.421,7.637,17.067,17.067,17.067s17.067-7.646,17.067-17.067
				C427.701,331.921,420.064,324.284,410.634,324.284z"/>
			<path d="M265.567,196.284h135.305c-2.517-2.918-4.898-5.982-6.946-9.31l-15.283-24.823H265.567V196.284z"/>
			<rect x="137.567" y="162.15" width="110.933" height="34.133"/>
			<path d="M470.368,264.55h42.667v-21.171c0-11.853-9.643-21.495-21.495-21.495h-35.157c-11.972,0-23.603-3.089-33.98-8.533H136.1
				c-8.602,0-15.599-6.997-15.599-15.599v-37.069c0-8.602,6.997-15.599,15.599-15.599h232.038l-3.686-5.99
				c-10.675-17.357-29.978-28.143-50.364-28.143H140.273c-20.403,0-39.714,10.803-50.389,28.194l-42.445,69.077
				c-5.163,8.431-14.524,13.662-24.832,13.662c-5.811,0-11.264,2.253-15.334,6.332C3.219,232.277,0.991,237.67,1,243.413
				c0.009,5.769,0.009,13.141,0.017,21.137h42.684c4.71,0,8.533,3.814,8.533,8.533s-3.823,8.533-8.533,8.533H1.026
				c0,13.568,0.009,27.486,0.009,38.46c0,16.435,13.397,29.807,29.858,29.807h13.491c4.164,28.894,29.022,51.2,59.051,51.2
				c30.029,0,54.886-22.306,59.051-51.2h189.099c4.164,28.894,29.022,51.2,59.051,51.2s54.886-22.306,59.051-51.2h8.858
				c19.021,0,34.492-15.471,34.492-34.492v-33.775h-42.667c-4.719,0-8.533-3.814-8.533-8.533S465.649,264.55,470.368,264.55z
				 M103.434,384.017c-23.526,0-42.667-19.14-42.667-42.667c0-23.526,19.14-42.667,42.667-42.667
				c23.526,0,42.667,19.14,42.667,42.667C146.101,364.877,126.961,384.017,103.434,384.017z M308.234,264.55
				c0,4.719-3.823,8.533-8.533,8.533s-8.533-3.814-8.533-8.533v-8.533h-34.133c-4.71,0-8.533-3.814-8.533-8.533
				s3.823-8.533,8.533-8.533h42.667c4.71,0,8.533,3.814,8.533,8.533V264.55z M410.634,384.017c-23.526,0-42.667-19.14-42.667-42.667
				c0-23.526,19.14-42.667,42.667-42.667c23.526,0,42.667,19.14,42.667,42.667C453.301,364.877,434.161,384.017,410.634,384.017z"/>
		</g>
	</g>
</g>
<g>
</g>
<g>
</g>
<g>
</g>
<g>
</g>
<g>
</g>
<g>
</g>
<g>
</g>
<g>
</g>
<g>
</g>
<g>
</g>
<g>
</g>
<g>
</g>
<g>
</g>
<g>
</g>
<g>
</g>
</svg>
