<?xml version="1.0" standalone="no"?>
<!DOCTYPE svg PUBLIC "-//W3C//DTD SVG 20010904//EN"
 "http://www.w3.org/TR/2001/REC-SVG-20010904/DTD/svg10.dtd">
<svg version="1.0" xmlns="http://www.w3.org/2000/svg"
 width="97.000000pt" height="133.000000pt" viewBox="0 0 97.000000 133.000000"
 preserveAspectRatio="xMidYMid meet">
<metadata>
Created by potrace 1.14, written by Peter Selinger 2001-2017
</metadata>
<g transform="translate(0.000000,133.000000) scale(0.100000,-0.100000)"
fill="#000000" stroke="none">
<path d="M636 1044 c-39 -40 -37 -103 5 -138 71 -60 172 -2 155 90 -14 71
-108 100 -160 48z"/>
<path d="M385 977 c-18 -15 -28 -36 -32 -64 -5 -37 -2 -45 25 -73 42 -41 97
-42 135 -2 82 85 -39 216 -128 139z"/>
<path d="M611 834 c-36 -30 -60 -101 -64 -185 -2 -49 0 -54 20 -57 12 -2 27
-10 35 -19 11 -14 11 -15 -7 -5 -11 5 -40 17 -65 26 -58 20 -115 68 -140 117
-23 44 -27 67 -5 29 l14 -25 1 37 c0 78 -91 91 -150 20 -45 -54 -90 -150 -96
-208 -5 -43 -3 -56 14 -80 26 -35 45 -149 37 -213 -4 -25 -14 -72 -22 -104
-20 -74 -9 -107 37 -107 37 0 53 24 74 105 18 68 21 211 5 284 -9 44 -8 56 17
117 25 64 26 68 10 95 -28 48 -17 45 14 -4 44 -69 130 -127 214 -142 28 -6 36
-3 50 16 9 13 16 18 16 11 0 -6 9 -12 20 -12 12 0 20 -7 20 -17 0 -36 -12 -41
-62 -28 -27 6 -48 8 -48 3 0 -4 9 -8 19 -8 19 0 20 -10 23 -196 3 -180 5 -197
22 -210 26 -18 51 -18 70 2 14 13 16 49 16 238 0 209 -1 224 -20 241 -24 22
-60 116 -59 153 1 20 3 16 10 -15 13 -69 43 -126 87 -165 23 -21 46 -38 51
-38 10 0 41 28 41 36 0 2 -18 23 -41 46 -40 41 -69 95 -69 127 0 13 2 13 9 2
6 -8 11 6 15 42 13 105 -43 150 -113 91z"/>
</g>
</svg>
