<?xml version="1.0" standalone="no"?>
<!DOCTYPE svg PUBLIC "-//W3C//DTD SVG 20010904//EN"
 "http://www.w3.org/TR/2001/REC-SVG-20010904/DTD/svg10.dtd">
<svg version="1.0" xmlns="http://www.w3.org/2000/svg"
 width="67.865091pt" height="115.064825pt" viewBox="0 0 67.865091 115.064825"
 preserveAspectRatio="xMidYMid meet">
<metadata>
Created by potrace 1.12, written by Peter Selinger 2001-2015
</metadata>
<g transform="translate(-8.096375,118.500000) scale(0.100000,-0.100000)"
fill="#000000" stroke="none">
<path d="M240 1153 c0 -35 -9 -40 -42 -22 -28 15 -32 6 -13 -30 15 -31 15 -31
-10 -31 -29 0 -32 -12 -9 -31 14 -11 12 -14 -12 -27 -21 -11 -24 -16 -13 -23
8 -5 25 -9 39 -9 22 1 23 2 7 11 -18 10 -18 11 0 25 16 12 16 15 3 24 -13 8
-11 11 8 16 23 7 29 19 12 29 -20 12 -9 25 15 19 22 -5 25 -3 25 22 l0 29 20
-25 c19 -23 21 -24 34 -8 15 20 26 14 26 -15 0 -15 5 -18 20 -14 17 4 20 2 15
-16 -6 -21 -6 -22 9 -3 24 30 20 47 -8 40 -21 -5 -24 -1 -31 33 -6 35 -8 36
-21 19 -7 -10 -15 -24 -17 -30 -2 -6 -16 3 -30 19 l-26 30 -1 -32z"/>
<path d="M477 1039 c-44 -29 -46 -33 -32 -49 8 -9 15 -22 15 -28 0 -18 8 -15
62 19 48 31 59 54 36 77 -18 18 -28 15 -81 -19z"/>
<path d="M289 1002 c-25 -23 -32 -36 -33 -71 -1 -36 4 -47 32 -72 44 -39 90
-39 134 0 27 24 33 36 33 71 0 35 -6 47 -33 71 -43 39 -90 39 -133 1z"/>
<path d="M587 992 c-19 -21 -23 -57 -7 -67 20 -12 9 -25 -20 -25 -40 0 -38
-16 5 -31 20 -8 35 -20 35 -29 0 -36 64 -57 76 -25 4 8 10 12 15 9 14 -8 46 5
53 22 3 9 2 23 -3 32 -6 12 -4 24 5 37 22 29 17 37 -9 12 -20 -19 -21 -25 -9
-43 11 -19 10 -24 -3 -38 -20 -19 -27 -20 -43 -4 -9 9 -12 7 -12 -11 0 -18 -5
-22 -27 -19 -23 2 -28 8 -28 30 1 21 -5 28 -30 33 l-30 6 29 12 c26 11 27 14
12 26 -22 18 -20 58 3 71 25 13 27 13 46 -6 12 -13 19 -14 30 -4 8 7 27 10 41
7 16 -3 22 -1 16 5 -5 5 -18 9 -28 8 -10 0 -28 -1 -39 -1 -11 -1 -29 2 -40 6
-14 4 -26 0 -38 -13z"/>
<path d="M631 917 c9 -7 19 -21 22 -32 5 -19 5 -19 6 1 1 21 -16 44 -33 44 -6
0 -4 -6 5 -13z"/>
<path d="M175 880 c-63 -25 -99 -129 -93 -268 3 -81 4 -85 35 -111 25 -21 35
-40 43 -81 15 -81 12 -179 -9 -260 -21 -79 -17 -101 20 -120 33 -18 66 11 86
78 26 83 25 316 -1 391 -13 37 -17 70 -14 109 5 54 3 58 -38 112 -24 30 -44
62 -44 71 0 17 30 49 46 49 4 0 -2 -7 -14 -16 -12 -8 -22 -23 -22 -32 0 -25
108 -156 131 -160 11 -2 53 17 94 43 77 48 90 70 59 96 -17 14 -13 15 -104
-39 l-35 -21 -48 62 c-29 37 -34 47 -13 23 l35 -38 -3 35 c-6 68 -53 101 -111
77z"/>
<path d="M493 848 c-18 -23 -25 -68 -10 -68 24 0 56 38 50 60 -6 23 -26 26
-40 8z"/>
<path d="M340 792 c-8 -4 -15 -17 -16 -29 0 -21 1 -21 28 -7 45 23 34 57 -12
36z"/>
<path d="M270 597 c0 -23 7 -53 16 -66 20 -28 72 -51 114 -51 16 0 30 -4 30
-10 0 -13 157 -13 164 -1 13 20 -13 59 -44 66 -47 10 -108 -3 -115 -26 -13
-40 -125 -12 -147 36 -9 20 -9 34 -1 55 9 23 8 30 -3 34 -11 4 -14 -5 -14 -37z"/>
<path d="M310 425 c0 -13 29 -15 200 -15 171 0 200 2 200 15 0 13 -29 15 -200
15 -171 0 -200 -2 -200 -15z"/>
</g>
</svg>
