<?xml version="1.0" standalone="no"?>
<!DOCTYPE svg PUBLIC "-//W3C//DTD SVG 20010904//EN"
 "http://www.w3.org/TR/2001/REC-SVG-20010904/DTD/svg10.dtd">
<svg version="1.0" xmlns="http://www.w3.org/2000/svg"
 width="98.000000pt" height="129.000000pt" viewBox="0 0 98.000000 129.000000"
 preserveAspectRatio="xMidYMid meet">

<g transform="translate(0.000000,129.000000) scale(0.100000,-0.100000)"
fill="#000000" stroke="none">
<path d="M839 1196 c-23 -81 -24 -92 -10 -97 12 -5 23 9 47 60 49 103 49 107
16 119 l-28 10 -25 -92z"/>
<path d="M238 1134 c-30 -16 -58 -61 -58 -94 0 -34 28 -78 60 -95 16 -8 38
-15 50 -15 53 0 110 57 110 110 0 34 -28 78 -60 95 -36 19 -67 19 -102 -1z"/>
<path d="M541 1124 c-76 -64 -34 -184 65 -187 44 -1 78 19 99 58 38 69 -15
155 -95 155 -27 0 -48 -8 -69 -26z"/>
<path d="M786 1061 c-11 -18 6 -42 28 -39 29 4 29 42 -1 46 -11 2 -24 -1 -27
-7z"/>
<path d="M190 923 c-77 -28 -124 -179 -101 -323 8 -51 16 -70 38 -89 27 -24
28 -27 26 -115 -1 -58 -11 -127 -27 -190 -27 -104 -25 -125 14 -146 27 -15 68
4 81 37 39 103 63 276 54 387 -7 70 -11 83 -40 115 -49 54 -68 99 -73 173 -5
77 12 118 51 118 37 0 47 -19 48 -94 l1 -71 14 55 c18 70 5 126 -32 140 -28
11 -32 11 -54 3z"/>
<path d="M542 900 c-12 -5 -27 -22 -33 -37 -11 -27 -7 -152 7 -220 5 -28 3
-33 -24 -47 -17 -9 -40 -16 -50 -16 -18 0 -38 -27 -29 -36 2 -2 39 -19 83 -38
70 -31 80 -38 87 -68 13 -49 2 -236 -18 -290 -13 -36 -14 -51 -5 -67 12 -24
61 -29 78 -8 25 32 46 136 46 239 1 68 5 108 11 108 8 0 7 30 0 96 -11 88 -21
113 -47 114 -3 0 -21 12 -39 27 -62 52 -101 182 -64 213 24 20 64 4 71 -28 13
-58 26 -91 40 -103 14 -11 15 -8 9 27 -12 73 -36 125 -62 135 -29 11 -31 11
-61 -1z"/>
<path d="M179 859 c-17 -33 -6 -146 19 -195 25 -49 71 -90 129 -116 46 -20 69
-16 79 14 7 24 -2 34 -62 67 -71 39 -87 67 -94 164 -5 80 -6 82 -32 85 -19 2
-30 -3 -39 -19z"/>
<path d="M547 864 c-27 -28 19 -164 70 -204 39 -31 97 -45 141 -34 32 8 37 13
37 39 0 29 -1 30 -57 33 -67 4 -102 31 -119 96 -6 22 -14 48 -18 56 -9 16 -43
25 -54 14z"/>
</g>
</svg>
