<?xml version="1.0" standalone="no"?>
<!DOCTYPE svg PUBLIC "-//W3C//DTD SVG 20010904//EN"
 "http://www.w3.org/TR/2001/REC-SVG-20010904/DTD/svg10.dtd">
<svg version="1.0" xmlns="http://www.w3.org/2000/svg"
 width="81.000000pt" height="89.000000pt" viewBox="0 0 81.000000 89.000000"
 preserveAspectRatio="xMidYMid meet">
<metadata>
Created by potrace 1.14, written by Peter Selinger 2001-2017
</metadata>
<g transform="translate(0.000000,89.000000) scale(0.100000,-0.100000)"
fill="#000000" stroke="none">
<path d="M152 710 c-6 -38 -30 -117 -52 -175 -44 -117 -47 -139 -24 -193 44
-105 140 -148 252 -113 59 18 62 18 114 0 159 -56 310 87 258 245 -12 38 -30
40 -30 3 0 -12 -9 -38 -20 -57 -10 -19 -31 -59 -45 -87 -15 -29 -31 -55 -36
-58 -18 -12 -20 23 -4 55 27 53 10 45 -25 -11 -21 -35 -35 -48 -41 -42 -7 7
-2 28 16 63 14 28 24 54 22 56 -3 3 -21 -18 -42 -46 -20 -27 -43 -50 -51 -50
-22 0 -17 15 21 64 50 66 43 78 -14 22 -65 -64 -78 -43 -17 29 25 29 46 56 46
59 0 4 -18 3 -41 0 -37 -6 -41 -5 -37 12 3 17 67 44 164 70 7 1 24 18 39 38
26 35 27 36 14 111 l-12 75 -221 0 -222 0 -12 -70z"/>
<path d="M100 239 c0 -2 11 -40 24 -84 l23 -80 104 0 104 0 3 62 3 63 -26 -10
c-62 -24 -171 -5 -217 37 -10 9 -18 14 -18 12z"/>
<path d="M610 203 c-37 -20 -55 -24 -105 -20 -33 2 -68 7 -77 12 -15 6 -18 2
-18 -28 0 -19 3 -49 6 -66 l7 -31 102 0 102 0 18 68 c10 37 20 73 23 80 6 16
-5 14 -58 -15z"/>
</g>
</svg>
