<?xml version="1.0" standalone="no"?>
<!DOCTYPE svg PUBLIC "-//W3C//DTD SVG 20010904//EN"
 "http://www.w3.org/TR/2001/REC-SVG-20010904/DTD/svg10.dtd">
<svg version="1.0" xmlns="http://www.w3.org/2000/svg"
 width="525.000000pt" height="350.000000pt" viewBox="0 0 525.000000 350.000000"
 preserveAspectRatio="xMidYMid meet">
<metadata>
Created by potrace 1.14, written by Peter Selinger 2001-2017
</metadata>
<g transform="translate(0.000000,350.000000) scale(0.100000,-0.100000)"
fill="#000000" stroke="none">
<path d="M3550 3494 c-185 -36 -385 -173 -483 -332 -20 -33 -37 -67 -37 -75 0
-9 12 -24 27 -35 26 -19 27 -21 15 -72 -16 -70 -15 -120 4 -141 14 -16 12 -22
-30 -84 -65 -94 -62 -155 7 -155 20 0 30 -6 34 -20 6 -23 15 -24 59 -8 17 6
39 8 48 5 20 -8 11 -34 -16 -43 -11 -3 -29 -25 -39 -49 -19 -44 -17 -75 6 -75
7 0 15 -18 19 -41 4 -26 17 -52 37 -71 28 -28 34 -30 80 -25 27 3 49 2 49 -3
0 -24 -76 -80 -173 -128 -123 -61 -199 -128 -237 -207 -13 -27 -46 -120 -74
-205 -46 -141 -53 -155 -76 -158 -14 -2 -32 -10 -41 -18 -34 -30 -89 4 -89 55
0 34 -35 55 -108 66 l-67 10 -5 40 c-8 55 -16 65 -56 65 -47 0 -69 -13 -84
-50 -7 -17 -16 -27 -20 -23 -4 4 -13 73 -19 153 -18 231 -22 241 -101 325 -78
83 -128 169 -110 190 17 21 39 160 40 251 0 47 8 114 20 159 11 43 17 89 14
104 -11 46 -51 87 -116 119 -124 61 -266 61 -375 0 -62 -35 -92 -64 -134 -130
l-32 -50 31 -64 c35 -71 39 -86 18 -78 -23 9 -39 -33 -32 -83 7 -56 30 -100
56 -108 27 -8 25 -19 -4 -33 -14 -6 -42 -27 -64 -46 -30 -27 -70 -46 -178 -82
-164 -54 -179 -62 -220 -106 -70 -74 -154 -242 -154 -307 0 -18 -19 -67 -44
-114 -64 -118 -89 -211 -90 -327 -1 -105 11 -154 51 -201 29 -35 111 -79 146
-79 13 0 26 -2 29 -5 3 -3 -3 -34 -14 -68 -64 -207 -121 -505 -116 -614 l3
-68 40 -9 c22 -5 41 -10 43 -11 1 -1 -6 -58 -17 -126 -11 -68 -23 -160 -27
-205 -6 -79 -6 -81 17 -87 13 -4 51 -7 85 -7 l61 0 6 118 c8 154 12 166 79
187 53 17 288 34 288 21 0 -4 -13 -32 -29 -64 -30 -60 -101 -244 -101 -262 0
-14 55 -13 67 3 6 6 16 30 23 52 20 62 78 185 87 185 15 0 82 -133 96 -191
l14 -54 53 -3 52 -3 -7 108 c-10 142 -11 140 23 182 54 68 84 81 182 81 l88 0
7 -125 c4 -68 4 -149 0 -180 l-6 -55 204 0 c234 0 217 -8 217 101 0 62 8 73
58 84 l33 7 -3 -94 -3 -93 25 0 25 0 3 119 c1 66 -1 123 -6 128 -6 6 -275 68
-297 68 -15 0 -2 50 17 62 18 12 21 23 19 68 -1 30 -8 81 -15 115 -10 40 -12
76 -6 110 4 28 11 150 15 271 l7 222 107 5 c58 3 118 9 132 12 23 6 27 3 32
-24 7 -33 29 -49 96 -65 l43 -12 -1 -109 c-1 -110 9 -168 43 -232 14 -28 73
-86 109 -108 15 -9 13 -21 -18 -130 -47 -163 -75 -312 -78 -420 l-2 -90 30 0
29 0 13 115 c22 201 85 478 113 495 14 9 170 -16 170 -26 0 -5 -20 -9 -44 -9
-60 0 -67 -16 -11 -24 63 -10 67 -26 6 -26 -60 0 -66 -14 -13 -30 71 -23 67
-34 -10 -30 -49 2 -48 -6 2 -26 22 -9 40 -21 40 -26 0 -7 -16 -9 -40 -5 -49 6
-52 -7 -5 -23 48 -16 44 -30 -10 -30 -56 0 -58 -13 -5 -29 53 -16 51 -31 -5
-31 -56 0 -58 -13 -5 -29 56 -16 50 -31 -12 -32 l-53 -1 48 -20 c26 -11 47
-24 47 -29 0 -5 -21 -9 -46 -9 -52 0 -51 -15 1 -24 44 -9 55 -26 18 -27 -15
-1 -35 -2 -45 -3 -35 -2 -27 -15 18 -28 66 -19 66 -34 -1 -43 -69 -8 -62 -25
11 -25 33 0 61 -5 69 -13 11 -11 82 -13 372 -10 197 2 463 6 592 9 l233 6 -5
162 c-5 172 0 149 -91 444 -36 117 -43 195 -21 213 74 59 85 76 85 127 0 33 6
57 19 73 34 44 35 66 5 96 -19 19 -23 28 -14 31 27 9 59 54 65 92 6 36 10 40
43 45 65 11 80 21 88 61 10 54 -4 69 -65 70 -28 1 -54 4 -57 7 -3 3 0 31 7 62
11 52 11 59 -4 70 -16 11 -16 15 0 56 12 34 17 79 17 194 1 144 0 152 -27 206
-50 102 -155 189 -300 249 -47 20 -63 32 -78 63 l-20 38 35 40 c38 41 43 58
25 91 -9 16 -7 24 10 42 12 12 21 28 21 35 0 9 6 11 18 5 9 -4 42 -10 74 -12
53 -3 58 -2 96 32 46 42 71 91 54 108 -7 7 -17 -2 -32 -32 -24 -47 -40 -48
-20 -1 12 31 6 55 -12 49 -6 -2 -18 -24 -27 -48 -20 -54 -48 -62 -110 -31 -22
12 -56 21 -75 21 -19 0 -38 5 -41 10 -4 6 9 10 33 10 32 0 41 5 50 25 7 14 12
35 12 45 0 11 9 24 19 29 18 10 41 59 41 87 0 7 -12 26 -26 43 -21 26 -23 33
-13 52 19 36 5 155 -25 223 -27 58 -27 59 -8 80 37 40 37 64 1 97 -48 44 -114
75 -205 94 -80 17 -238 28 -284 19z m305 -65 c135 -30 163 -50 150 -109 -6
-29 -35 -43 -35 -16 0 40 -56 75 -130 81 -14 1 -54 5 -90 9 -92 11 -251 -9
-317 -40 -28 -13 -59 -24 -68 -24 -27 0 -117 -64 -174 -124 -51 -53 -71 -67
-71 -47 0 16 92 111 139 144 86 60 198 117 229 117 10 0 22 4 28 9 5 5 23 12
39 14 49 8 245 -1 300 -14z m70 -173 c38 -16 67 -57 91 -129 l16 -49 -32 -33
c-39 -40 -35 -59 20 -98 39 -28 55 -58 48 -94 -3 -15 -13 -18 -63 -18 -55 0
-60 2 -63 23 -5 30 -20 28 -28 -5 -6 -20 -2 -31 16 -45 12 -10 31 -18 42 -18
15 0 19 -6 16 -27 -3 -28 -3 -28 -73 -25 -63 3 -72 1 -93 -21 -32 -34 -40 -92
-17 -117 22 -25 40 -25 73 -1 54 37 108 34 100 -5 -3 -15 -11 -18 -36 -16 -38
3 -40 -9 -7 -42 32 -32 32 -50 -1 -83 -24 -24 -30 -25 -107 -21 -171 9 -290
118 -301 273 -5 65 -16 79 -34 40 -13 -28 -43 -33 -62 -10 -20 24 -30 18 -30
-17 0 -84 -65 -289 -107 -338 -42 -51 -93 -31 -93 36 0 31 -3 35 -20 29 -32
-10 -25 26 15 73 34 39 36 45 33 104 -2 50 -6 62 -18 59 -8 -2 -31 -6 -52 -9
-30 -3 -39 0 -53 22 -21 31 -15 63 20 104 13 16 22 32 19 35 -3 3 6 13 20 22
34 22 23 37 -20 29 -44 -8 -52 11 -30 69 9 24 16 52 16 64 0 22 52 73 75 73
25 0 38 -31 38 -91 0 -49 3 -59 17 -59 26 0 42 -25 34 -54 -6 -24 -4 -26 29
-26 35 0 36 1 39 42 4 49 36 79 89 81 28 2 34 -2 43 -28 6 -16 11 -31 11 -32
1 -2 16 3 33 9 29 11 31 16 26 44 -4 25 0 37 20 59 17 18 24 35 21 46 -3 10
-1 36 5 57 24 89 90 131 208 132 41 0 88 -6 107 -14z m-1987 -255 c40 -8 95
-40 139 -81 18 -16 20 -25 13 -55 -11 -51 -15 -51 -36 -8 -13 25 -33 45 -60
59 -23 11 -52 31 -65 43 -22 21 -30 23 -107 18 -77 -6 -142 -28 -142 -49 0 -4
-11 -8 -25 -8 -38 0 -30 14 26 45 71 38 172 52 257 36z m71 -125 c15 -14 51
-112 51 -139 0 -3 -21 -4 -47 0 -40 4 -51 2 -67 -16 l-19 -21 45 6 c74 10 88
-4 88 -86 0 -97 -49 -251 -95 -297 -38 -38 -69 -42 -124 -13 -76 38 -111 111
-111 229 0 26 -7 56 -15 67 -8 10 -15 27 -15 37 0 21 42 59 76 69 28 7 64 0
64 -14 0 -6 -10 -8 -22 -5 -11 3 -36 0 -55 -8 -37 -16 -46 -41 -11 -32 12 4
28 1 36 -6 11 -9 17 -8 27 6 25 35 38 20 32 -38 -8 -74 10 -97 71 -88 30 4 42
10 42 22 0 12 -8 17 -27 16 -29 0 -33 10 -51 125 l-7 45 -76 0 c-83 0 -109 12
-109 50 0 32 37 75 84 96 54 25 206 21 235 -5z m1468 -198 c5 -7 15 -33 22
-58 7 -25 23 -63 36 -86 24 -41 90 -107 116 -116 8 -3 12 -7 9 -9 -14 -11
-276 -140 -284 -139 -23 1 14 260 55 388 11 33 30 41 46 20z m-2081 -405 c-38
-60 -40 -78 -11 -101 30 -24 31 -29 4 -51 l-21 -17 55 -139 c30 -77 64 -164
76 -192 34 -86 5 -61 -45 38 -25 50 -47 89 -50 87 -2 -3 11 -49 29 -102 19
-53 31 -98 27 -101 -3 -2 -24 31 -45 73 -45 89 -56 78 -21 -20 13 -37 21 -70
18 -73 -3 -3 -20 19 -37 50 -36 64 -50 63 -28 -1 19 -57 11 -80 -12 -31 -29
58 -48 43 -25 -19 13 -34 5 -42 -20 -19 -19 18 -20 17 -20 -3 0 -17 -6 -22
-25 -22 -31 0 -31 1 0 45 37 55 86 193 88 244 0 31 -11 74 -33 131 -38 95 -38
95 -45 89 -2 -3 3 -25 11 -49 21 -60 20 -215 0 -264 -8 -20 -31 -56 -50 -79
-19 -23 -37 -54 -41 -70 -7 -27 -19 -35 -29 -19 -3 5 17 45 44 90 53 85 70
144 70 237 0 39 -5 59 -21 76 l-20 24 6 -40 7 -40 -21 19 c-25 23 -27 14 -4
-25 19 -33 9 -54 -13 -25 -23 33 -26 11 -3 -28 25 -43 16 -62 -12 -27 -30 37
-34 17 -5 -26 29 -42 18 -58 -18 -24 -34 32 -41 25 -12 -13 38 -51 34 -72 -8
-41 -34 26 -39 16 -12 -19 36 -48 32 -62 -9 -30 -43 32 -47 13 -5 -23 39 -33
29 -48 -15 -22 -43 26 -45 13 -4 -26 33 -30 23 -51 -10 -21 -25 23 -32 20 -25
-9 7 -28 -7 -33 -26 -10 -18 21 -32 19 -25 -5 4 -14 2 -20 -9 -20 -8 0 -18 5
-21 10 -10 16 -25 1 -18 -17 5 -13 2 -15 -15 -11 -24 7 -26 5 -36 -34 -7 -32
13 -39 35 -11 23 27 91 53 142 53 65 0 51 -16 -18 -22 -40 -3 -67 -13 -97 -34
-51 -36 -55 -47 -25 -63 21 -11 29 -10 66 14 49 30 155 59 255 69 68 7 68 7
62 -16 -17 -57 -18 -145 -2 -207 9 -36 13 -68 9 -72 -12 -12 -272 -32 -322
-25 -25 3 -55 13 -68 21 -28 19 -32 40 -4 26 49 -27 116 -32 239 -20 67 6 125
16 128 21 3 5 0 15 -6 23 -7 8 -15 44 -17 80 -4 37 -10 62 -15 59 -6 -4 -8
-17 -5 -30 7 -38 -12 -39 -26 -2 l-12 33 -5 -40 -5 -40 -22 35 c-23 36 -26 34
-23 -12 2 -35 -12 -36 -30 -3 -20 37 -29 31 -23 -15 7 -50 -11 -53 -27 -5 -15
45 -31 37 -20 -10 10 -46 -5 -55 -28 -16 -22 39 -35 40 -27 1 7 -33 -7 -41
-25 -12 -8 12 -13 13 -16 5 -3 -7 -10 -13 -15 -13 -14 0 -11 31 6 64 18 34 18
36 4 36 -5 0 -19 -20 -30 -45 -24 -53 -46 -52 -24 2 18 42 18 43 6 43 -6 0
-18 -13 -28 -30 -9 -16 -21 -30 -25 -30 -15 0 -8 27 13 54 15 19 17 26 7 26
-8 0 -19 -5 -26 -12 -6 -6 -15 -9 -19 -5 -3 4 9 23 28 43 29 31 31 35 12 29
-19 -5 -23 -3 -23 17 0 70 69 238 107 263 15 10 22 22 19 32 -10 25 14 145 39
201 32 69 118 178 159 199 38 20 195 72 219 73 15 0 15 -4 -7 -37z m321 12
c28 -14 58 -34 67 -44 16 -18 14 -20 -34 -51 -28 -18 -61 -46 -75 -63 -18 -23
-25 -28 -29 -17 -14 39 -46 167 -46 182 0 27 56 23 117 -7z m2327 -55 c130
-65 199 -148 261 -313 19 -50 13 -75 -11 -43 -23 32 -26 12 -4 -38 11 -26 20
-52 20 -57 0 -20 -20 -7 -35 22 -23 43 -31 28 -11 -21 9 -22 16 -45 16 -50 0
-20 -22 -9 -38 20 -23 40 -34 38 -26 -5 10 -56 10 -68 -3 -72 -6 -2 -17 13
-23 34 -20 62 -30 62 -30 0 0 -42 -4 -57 -14 -57 -15 0 -26 30 -26 73 0 44
-19 31 -22 -15 -4 -61 -22 -53 -28 12 -5 56 -12 58 -24 8 -10 -43 -26 -33 -26
17 0 51 -14 60 -23 15 -10 -48 -27 -35 -27 20 0 46 -13 67 -23 38 -2 -8 -11 0
-21 17 l-17 30 5 -42 c7 -68 -9 -59 -40 24 -16 42 -34 78 -41 80 -7 3 -5 -14
7 -45 20 -53 30 -144 17 -152 -4 -3 -18 25 -31 62 -12 37 -25 71 -29 75 -15
14 -15 -5 -1 -46 8 -24 17 -64 21 -89 9 -65 -16 -51 -45 26 -13 34 -28 62 -33
62 -13 0 -11 -12 6 -53 18 -44 20 -110 3 -105 -6 2 -20 30 -32 61 -11 31 -24
57 -28 57 -12 0 -10 -20 7 -65 34 -96 3 -118 -35 -24 -25 65 -39 66 -21 2 13
-45 14 -83 3 -83 -4 0 -20 25 -35 56 -31 63 -44 66 -28 7 14 -50 14 -76 -1
-71 -7 3 -18 26 -24 52 -18 69 -24 68 -24 -2 0 -68 -16 -83 -25 -24 -11 65
-19 69 -25 12 -5 -52 -6 -53 -18 -30 -6 14 -21 63 -32 110 -17 68 -28 91 -53
115 -18 17 -47 48 -65 70 -19 22 -30 31 -26 20 4 -11 16 -45 27 -75 15 -41 22
-87 25 -177 5 -141 -9 -227 -63 -398 -41 -127 -83 -191 -163 -245 -49 -33 -62
-53 -44 -64 5 -3 25 6 46 20 85 58 277 94 429 80 l78 -8 26 -51 c28 -55 42
-171 29 -240 -6 -32 -10 -35 -81 -56 -228 -66 -535 -66 -702 1 -90 36 -98 57
-97 248 3 322 88 746 185 931 64 121 104 152 279 221 252 100 490 159 625 155
80 -2 98 -6 159 -37z m-2463 -117 c15 -60 42 -148 58 -198 28 -85 32 -110 12
-89 -11 11 -101 246 -101 263 0 6 -4 11 -10 11 -5 0 -10 -4 -10 -9 0 -15 80
-242 96 -274 11 -20 12 -33 6 -39 -7 -7 -26 22 -58 88 -53 110 -52 109 -59
103 -3 -4 56 -164 92 -246 3 -7 0 -13 -5 -13 -6 0 -55 87 -108 192 l-97 193
74 67 c40 37 75 65 78 63 2 -3 17 -53 32 -112z m524 -102 c-22 -92 -96 -260
-139 -316 -24 -31 -19 -13 18 72 59 133 77 185 65 181 -7 -2 -32 -49 -56 -103
-24 -55 -49 -104 -55 -110 -14 -13 -10 -1 42 148 23 65 39 121 36 124 -3 3
-22 -27 -41 -68 -32 -67 -35 -70 -31 -35 11 87 38 272 42 284 2 8 29 -12 68
-52 l64 -66 -13 -59z m40 152 c32 -129 25 -225 -35 -463 -21 -85 -42 -179 -46
-207 -7 -57 -20 -69 -29 -28 -3 14 -7 36 -10 49 -3 14 -18 34 -34 46 -29 20
-30 21 -16 60 7 21 43 102 79 179 36 77 73 169 82 206 l17 66 -32 39 c-34 43
-36 51 -19 68 20 20 35 14 43 -15z m-307 -210 c19 -83 35 -223 25 -223 -2 0
-9 14 -14 30 -13 37 -42 40 -77 8 l-25 -23 6 80 c6 94 36 215 53 215 7 0 21
-37 32 -87z m-18 -208 c0 -34 -31 -75 -62 -83 -17 -4 -33 -12 -35 -18 -2 -5
55 -39 127 -74 71 -36 130 -71 130 -77 0 -28 -71 -8 -192 55 -5 2 -8 -5 -8
-16 0 -16 12 -25 52 -38 82 -27 133 -51 152 -73 34 -37 -8 -36 -113 3 -101 37
-121 42 -121 28 0 -5 43 -26 95 -46 52 -21 95 -42 95 -47 0 -21 -31 -18 -112
11 -95 33 -112 36 -106 18 3 -7 35 -21 73 -33 38 -11 70 -26 73 -33 5 -16 -21
-15 -88 4 -30 8 -89 19 -130 24 -54 7 -96 20 -150 47 -70 35 -75 40 -78 73 -5
49 14 105 41 122 34 22 125 56 200 74 53 13 75 25 105 54 41 42 52 47 52 25z
m590 -29 c0 -39 49 -76 102 -76 11 0 35 -7 54 -16 26 -13 34 -22 34 -43 0 -37
25 -68 60 -76 25 -6 28 -9 20 -25 -5 -10 -23 -58 -39 -107 -42 -124 -49 -128
-246 -128 -170 0 -225 8 -225 32 0 13 10 15 58 11 31 -3 66 -9 76 -13 17 -7
18 -6 11 11 -5 10 -10 39 -10 64 -1 25 -5 53 -9 63 -4 9 -5 25 -1 35 8 19 16
102 10 102 -3 0 -11 -13 -19 -29 -12 -22 -28 -32 -77 -45 -36 -11 -65 -14 -70
-9 -25 25 135 106 199 101 36 -3 37 -4 34 -40 -2 -20 2 -47 10 -60 12 -21 13
-19 19 36 6 57 6 60 -27 93 -38 38 -45 83 -18 121 21 31 54 29 54 -2z m1494
-257 c13 -6 32 -26 42 -44 16 -31 16 -35 -1 -82 -18 -50 -18 -50 6 -101 29
-63 43 -66 35 -9 -8 53 4 66 66 74 24 3 53 14 65 25 41 38 283 102 305 80 20
-20 0 -39 -61 -56 -33 -9 -91 -32 -128 -51 -79 -40 -80 -40 -105 -18 -20 18
-23 7 -8 -32 10 -25 8 -27 -48 -51 -76 -34 -92 -50 -92 -91 0 -18 -7 -44 -16
-58 -12 -18 -13 -28 -4 -44 17 -34 53 -52 87 -45 27 5 31 3 37 -21 6 -25 8
-26 25 -11 10 9 27 16 39 16 32 0 27 17 -8 25 -17 4 -35 15 -40 25 -10 18 -12
18 -39 2 -24 -13 -34 -14 -55 -4 -37 17 -32 38 14 62 51 26 70 25 131 -5 64
-33 79 -62 56 -111 -13 -27 -31 -42 -80 -64 -112 -52 -144 -57 -223 -31 -38
12 -75 26 -82 30 -7 4 -25 65 -39 135 -31 150 -28 165 50 285 27 41 51 80 54
87 2 6 -8 25 -22 42 -38 45 -18 67 39 41z m-1871 -149 c4 -16 9 -59 13 -95 l7
-65 -42 0 -41 0 0 -78 c0 -90 10 -110 60 -121 l35 -7 -3 -150 c-3 -162 -17
-342 -27 -352 -4 -4 -39 -7 -78 -7 -75 0 -110 14 -149 60 -23 26 -25 45 -41
280 -15 223 -10 303 26 411 l23 69 52 -3 c50 -3 53 -2 94 41 24 25 48 46 54
46 6 1 14 -12 17 -29z m-352 -20 c5 0 9 -7 9 -15 0 -9 7 -30 16 -48 14 -26 16
-63 15 -232 -3 -339 -37 -497 -121 -554 -34 -23 -39 -23 -190 -17 -85 3 -181
12 -214 20 -71 17 -176 58 -176 68 0 5 22 8 49 8 28 0 52 4 55 8 3 5 -15 18
-40 30 -59 29 -49 45 22 36 68 -8 75 14 12 37 -24 9 -43 22 -43 30 0 14 10 15
75 8 48 -5 46 13 -3 31 -43 16 -62 40 -30 40 10 -1 37 -5 61 -9 61 -12 63 6 3
32 -76 33 -68 51 19 42 82 -8 92 4 23 30 -90 33 -85 55 7 35 33 -7 63 -10 66
-7 4 3 -19 18 -50 34 -31 15 -56 30 -56 34 0 18 23 18 75 -2 38 -14 60 -18 67
-11 7 7 -5 17 -37 31 -26 12 -51 21 -56 21 -5 0 -9 5 -9 10 0 13 17 13 80 -2
64 -15 70 -9 89 86 7 36 16 66 20 66 4 0 17 -7 30 -16 40 -28 44 -1 6 36 -35
34 -45 60 -23 60 7 0 29 -17 50 -37 21 -20 40 -34 44 -31 3 4 -6 27 -21 51
-34 60 -15 76 28 24 45 -57 68 -45 25 13 -16 23 -19 33 -11 41 9 9 20 5 43
-15 39 -32 61 -34 32 -3 -12 13 -22 26 -22 29 0 8 41 16 58 12 8 -2 18 -4 23
-4z m562 -126 c5 -16 10 -119 10 -230 2 -237 3 -234 -85 -234 -66 0 -70 13 -8
30 47 13 53 30 11 30 -17 0 -33 5 -36 10 -6 10 1 14 48 24 41 9 35 36 -9 36
-43 0 -36 17 11 26 39 7 48 34 13 34 -29 0 -52 15 -44 28 3 5 19 12 36 15 39
8 39 33 0 42 -38 8 -38 23 0 37 35 12 35 31 -1 36 -41 6 -46 21 -11 34 38 14
37 32 -1 36 -35 4 -35 22 -1 22 35 0 26 24 -12 30 l-29 5 23 17 c33 23 73 10
85 -28z m1968 -30 c51 -35 55 -44 31 -75 l-20 -23 -61 33 c-52 27 -68 32 -101
26 -32 -5 -41 -3 -46 10 -8 20 7 36 49 52 46 18 100 9 148 -23z m-1960 -504
c11 0 29 -77 29 -124 0 -46 -12 -59 -28 -31 -4 9 -24 18 -43 21 -31 5 -36 3
-51 -28 -9 -18 -18 -44 -20 -57 -3 -25 -32 -50 -44 -38 -4 4 -2 13 4 19 8 8
12 52 12 128 l0 115 67 -2 c38 -1 71 -2 74 -3z m-50 -341 c22 -22 51 -24 78
-7 18 11 43 7 194 -33 41 -11 42 -24 1 -32 -26 -5 -356 47 -375 58 -17 11 -9
34 14 37 35 5 68 -3 88 -23z"/>
<path d="M3171 1953 c14 -16 32 -37 40 -47 12 -18 12 -19 -1 -11 -8 4 -29 19
-47 32 -51 38 -50 7 2 -39 25 -22 44 -42 42 -45 -3 -2 -30 7 -61 21 -69 31
-85 16 -18 -18 49 -25 84 -56 64 -56 -6 0 -36 9 -67 21 -82 31 -90 17 -12 -22
37 -18 67 -40 67 -47 0 -8 -6 -12 -14 -9 -30 12 -137 29 -143 24 -5 -6 42 -30
115 -58 12 -5 22 -13 22 -19 0 -13 -4 -13 -70 5 -65 17 -90 19 -90 5 0 -5 4
-10 9 -10 16 0 143 -61 138 -67 -6 -5 -124 13 -153 24 -11 4 -15 2 -12 -7 2
-7 34 -25 71 -40 37 -15 70 -30 75 -35 8 -9 -127 1 -154 12 -12 4 -15 2 -12
-8 5 -14 43 -31 116 -49 69 -18 49 -30 -49 -30 -52 0 -88 -4 -85 -9 4 -5 40
-17 81 -27 41 -10 75 -21 75 -26 0 -4 -38 -8 -85 -8 -119 0 -112 -15 23 -50
66 -17 50 -30 -38 -30 -48 0 -80 -4 -80 -10 0 -12 0 -12 83 -35 31 -8 57 -20
57 -25 0 -6 -32 -10 -71 -10 -86 0 -91 -20 -8 -33 81 -13 84 -27 6 -27 -73 0
-90 -14 -29 -24 90 -17 100 -36 17 -36 -41 0 -55 -4 -55 -14 0 -10 14 -16 45
-18 57 -4 59 -18 6 -37 -23 -8 -41 -21 -41 -28 0 -17 44 -17 106 2 150 44 234
220 265 552 17 182 -16 308 -97 369 -43 33 -64 31 -33 -3z"/>
<path d="M3463 965 c1 -43 -2 -75 -8 -75 -5 -1 -18 31 -29 69 -10 39 -22 71
-26 71 -4 0 -5 -34 -2 -76 6 -97 -13 -99 -37 -4 -9 35 -22 66 -30 68 -9 3 -11
-2 -8 -14 10 -33 11 -124 2 -126 -5 -2 -21 27 -34 65 -14 37 -29 67 -33 67 -4
0 -5 -34 -1 -75 7 -92 -7 -99 -32 -15 -22 73 -36 78 -28 11 6 -55 -3 -105 -17
-96 -6 3 -15 26 -21 51 -17 66 -31 66 -28 0 3 -66 -10 -73 -30 -15 -15 47 -28
41 -33 -16 -4 -53 -19 -51 -33 5 -12 47 -18 46 -30 -7 -9 -46 -23 -41 -27 10
l-3 42 -18 -32 c-24 -44 -41 -43 -33 2 7 37 -8 50 -17 15 -10 -37 -28 -22 -22
18 6 33 5 35 -8 20 -23 -29 -29 -21 -25 34 2 33 -1 53 -9 55 -32 11 -29 -181
4 -226 35 -48 77 -60 249 -72 199 -14 387 -8 477 16 57 15 68 21 75 44 17 64
-1 196 -33 236 -15 19 -16 18 -8 -15 11 -52 10 -113 -3 -117 -7 -2 -15 13 -19
34 -3 21 -15 57 -25 81 -23 51 -45 57 -36 10 16 -93 18 -118 8 -118 -6 0 -20
34 -33 75 -12 41 -25 75 -30 75 -4 0 -7 -34 -6 -75z"/>
</g>
</svg>
